<svg version="1.1" xmlns="http://www.w3.org/2000/svg" xmlns:xlink="http://www.w3.org/1999/xlink" width="512.000000pt" height="512.000000pt" viewBox="0,0,256,256"><g fill="#f2f2f2" fill-rule="nonzero" stroke="#f2f2f2" stroke-width="58" stroke-linecap="butt" stroke-linejoin="round" stroke-miterlimit="10" stroke-dasharray="" stroke-dashoffset="0" font-family="none" font-weight="none" font-size="none" text-anchor="none" style="mix-blend-mode: normal"><path transform="translate(0.04363,0.07498) scale(0.05,0.05)" d="M1514,4517c-572,-331 -1041,-606 -1041,-612c0,-5 470,-281 1044,-612l1044,-602l1050,606c578,333 1046,609 1042,613c-10,9 -2091,1210 -2095,1209c-2,0 -471,-271 -1044,-602zM310,1212l1028,-593c565,-326 1037,-599 1050,-607l22,-14l-2,1217l-3,1218l-1008,582c-554,320 -1025,592 -1047,604l-40,22zM2715,2433l-3,-1218l-2,-1217l32,20c18,11 488,282 1043,602c556,320 1013,585 1018,589c4,4 6,552 5,1218l-3,1212z" id="strokeMainSVG"></path></g><g fill="#000000" fill-rule="nonzero" stroke="none" stroke-width="1" stroke-linecap="butt" stroke-linejoin="miter" stroke-miterlimit="10" stroke-dasharray="" stroke-dashoffset="0" font-family="none" font-weight="none" font-size="none" text-anchor="none" style="mix-blend-mode: normal"><g transform="translate(0.04363,-0.07498) scale(0.5,0.5)"><g transform="translate(0,512) scale(0.1,-0.1)"><path d="M1514,4517c-572,-331 -1041,-606 -1041,-612c0,-5 470,-281 1044,-612l1044,-602l1050,606c578,333 1046,609 1042,613c-10,9 -2091,1210 -2095,1209c-2,0 -471,-271 -1044,-602z"></path><path d="M310,2427v-1215l1028,-593c565,-326 1037,-599 1050,-607l22,-14l-2,1217l-3,1218l-1008,582c-554,320 -1025,592 -1047,604l-40,22z"></path><path d="M3760,3036l-1045,-603l-3,-1218l-2,-1217l32,20c18,11 488,282 1043,602c556,320 1013,585 1018,589c4,4 6,552 5,1218l-3,1212z"></path></g></g></g><g fill="none" fill-rule="nonzero" stroke="none" stroke-width="none" stroke-linecap="butt" stroke-linejoin="none" stroke-miterlimit="10" stroke-dasharray="" stroke-dashoffset="0" font-family="none" font-weight="none" font-size="none" text-anchor="none" style="mix-blend-mode: normal"><path d="M19.335,180.99v-73.94h25.9c8.97333,0 15.77667,1.72 20.41,5.16c4.64,3.43333 6.96,8.46667 6.96,15.1c0,3.62667 -0.93,6.82 -2.79,9.58c-1.86,2.76 -4.45,4.78 -7.77,6.06c3.79333,0.95333 6.78,2.86667 8.96,5.74c2.18667,2.88 3.28,6.40333 3.28,10.57c0,7.10667 -2.27,12.48667 -6.81,16.14c-4.53333,3.66 -11,5.52333 -19.4,5.59zM34.575,148.79v19.96h13.05c3.58667,0 6.38667,-0.85333 8.4,-2.56c2.01333,-1.71333 3.02,-4.07667 3.02,-7.09c0,-6.76667 -3.50333,-10.20333 -10.51,-10.31zM34.575,119.39v18.64h11.27c7.68667,-0.13333 11.53,-3.19667 11.53,-9.19c0,-3.35333 -0.97333,-5.76667 -2.92,-7.24c-1.94667,-1.47333 -5.02,-2.21 -9.22,-2.21zM131.415,180.99h-14.83c-0.68,-1.32 -1.17,-2.96333 -1.47,-4.93c-3.56,3.96667 -8.18333,5.95 -13.87,5.95c-5.38,0 -9.84,-1.56 -13.38,-4.68c-3.54,-3.11333 -5.31,-7.04 -5.31,-11.78c0,-5.82 2.16,-10.28667 6.48,-13.4c4.31333,-3.12 10.55,-4.69667 18.71,-4.73h6.76v-3.14c0,-2.54 -0.65333,-4.57333 -1.96,-6.1c-1.3,-1.52 -3.35667,-2.28 -6.17,-2.28c-2.47333,0 -4.41,0.59 -5.81,1.77c-1.40667,1.18667 -2.11,2.81333 -2.11,4.88h-14.68c0,-3.18 0.98333,-6.12667 2.95,-8.84c1.96,-2.70667 4.73667,-4.83 8.33,-6.37c3.58667,-1.54 7.61333,-2.31 12.08,-2.31c6.77333,0 12.15,1.7 16.13,5.1c3.97333,3.40667 5.96,8.19 5.96,14.35v23.81c0.03333,5.22 0.76333,9.16667 2.19,11.84zM104.445,170.78c2.16667,0 4.16333,-0.48 5.99,-1.44c1.83333,-0.96667 3.19,-2.26333 4.07,-3.89v-9.44h-5.49c-7.34667,0 -11.25667,2.53667 -11.73,7.61l-0.05,0.87c0,1.82667 0.64333,3.33333 1.93,4.52c1.28667,1.18 3.04667,1.77 5.28,1.77zM163.355,170.17c2.70667,0 4.90667,-0.74333 6.6,-2.23c1.69333,-1.49333 2.57333,-3.47333 2.64,-5.94h13.76c-0.03333,3.72 -1.05,7.13 -3.05,10.23c-1.99333,3.1 -4.72667,5.50333 -8.2,7.21c-3.46667,1.71333 -7.3,2.57 -11.5,2.57c-7.85333,0 -14.04667,-2.49667 -18.58,-7.49c-4.54,-4.99333 -6.81,-11.89333 -6.81,-20.7v-0.96c0,-8.46667 2.25,-15.22 6.75,-20.26c4.50667,-5.04667 10.68667,-7.57 18.54,-7.57c6.87333,0 12.38333,1.95333 16.53,5.86c4.14667,3.91333 6.25333,9.12 6.32,15.62h-13.76c-0.06667,-2.84667 -0.94667,-5.15667 -2.64,-6.93c-1.69333,-1.78 -3.92667,-2.67 -6.7,-2.67c-3.42,0 -6.00333,1.24333 -7.75,3.73c-1.74,2.49333 -2.61,6.53333 -2.61,12.12v1.52c0,5.65333 0.86333,9.71667 2.59,12.19c1.72667,2.46667 4.35,3.7 7.87,3.7zM228.805,180.99l-14.11,-22.04l-5.28,5.28v16.76h-14.68v-78h14.68v43.21l2.84,-3.65l14.07,-16.51h17.62l-19.86,22.91l21.58,32.04z" id="strokeMainSVG" fill="#f2f2f2" stroke="#f2f2f2" stroke-width="29" stroke-linejoin="round"></path><g fill="#f60d0d" stroke="none" stroke-width="1" stroke-linejoin="miter"><path d="M48.075,180.99h-28.74v-73.94h25.9c8.97333,0 15.77667,1.72 20.41,5.16c4.64,3.43333 6.96,8.46667 6.96,15.1v0c0,3.62667 -0.93,6.82 -2.79,9.58c-1.86,2.76 -4.45,4.78 -7.77,6.06v0c3.79333,0.95333 6.78,2.86667 8.96,5.74c2.18667,2.88 3.28,6.40333 3.28,10.57v0c0,7.10667 -2.27,12.48667 -6.81,16.14c-4.53333,3.66 -11,5.52333 -19.4,5.59zM48.535,148.79h-13.96v19.96h13.05c3.58667,0 6.38667,-0.85333 8.4,-2.56c2.01333,-1.71333 3.02,-4.07667 3.02,-7.09v0c0,-6.76667 -3.50333,-10.20333 -10.51,-10.31zM34.575,119.39v18.64h11.27c7.68667,-0.13333 11.53,-3.19667 11.53,-9.19v0c0,-3.35333 -0.97333,-5.76667 -2.92,-7.24c-1.94667,-1.47333 -5.02,-2.21 -9.22,-2.21v0zM131.415,180.99h-14.83c-0.68,-1.32 -1.17,-2.96333 -1.47,-4.93v0c-3.56,3.96667 -8.18333,5.95 -13.87,5.95v0c-5.38,0 -9.84,-1.56 -13.38,-4.68c-3.54,-3.11333 -5.31,-7.04 -5.31,-11.78v0c0,-5.82 2.16,-10.28667 6.48,-13.4c4.31333,-3.12 10.55,-4.69667 18.71,-4.73v0h6.76v-3.14c0,-2.54 -0.65333,-4.57333 -1.96,-6.1c-1.3,-1.52 -3.35667,-2.28 -6.17,-2.28v0c-2.47333,0 -4.41,0.59 -5.81,1.77c-1.40667,1.18667 -2.11,2.81333 -2.11,4.88v0h-14.68c0,-3.18 0.98333,-6.12667 2.95,-8.84c1.96,-2.70667 4.73667,-4.83 8.33,-6.37c3.58667,-1.54 7.61333,-2.31 12.08,-2.31v0c6.77333,0 12.15,1.7 16.13,5.1c3.97333,3.40667 5.96,8.19 5.96,14.35v0v23.81c0.03333,5.22 0.76333,9.16667 2.19,11.84v0zM104.445,170.78v0c2.16667,0 4.16333,-0.48 5.99,-1.44c1.83333,-0.96667 3.19,-2.26333 4.07,-3.89v0v-9.44h-5.49c-7.34667,0 -11.25667,2.53667 -11.73,7.61v0l-0.05,0.87c0,1.82667 0.64333,3.33333 1.93,4.52c1.28667,1.18 3.04667,1.77 5.28,1.77zM163.355,170.17v0c2.70667,0 4.90667,-0.74333 6.6,-2.23c1.69333,-1.49333 2.57333,-3.47333 2.64,-5.94v0h13.76c-0.03333,3.72 -1.05,7.13 -3.05,10.23c-1.99333,3.1 -4.72667,5.50333 -8.2,7.21c-3.46667,1.71333 -7.3,2.57 -11.5,2.57v0c-7.85333,0 -14.04667,-2.49667 -18.58,-7.49c-4.54,-4.99333 -6.81,-11.89333 -6.81,-20.7v0v-0.96c0,-8.46667 2.25,-15.22 6.75,-20.26c4.50667,-5.04667 10.68667,-7.57 18.54,-7.57v0c6.87333,0 12.38333,1.95333 16.53,5.86c4.14667,3.91333 6.25333,9.12 6.32,15.62v0h-13.76c-0.06667,-2.84667 -0.94667,-5.15667 -2.64,-6.93c-1.69333,-1.78 -3.92667,-2.67 -6.7,-2.67v0c-3.42,0 -6.00333,1.24333 -7.75,3.73c-1.74,2.49333 -2.61,6.53333 -2.61,12.12v0v1.52c0,5.65333 0.86333,9.71667 2.59,12.19c1.72667,2.46667 4.35,3.7 7.87,3.7zM228.805,180.99l-14.11,-22.04l-5.28,5.28v16.76h-14.68v-78h14.68v43.21l2.84,-3.65l14.07,-16.51h17.62l-19.86,22.91l21.58,32.04z"></path></g></g></svg>