<svg version="1.1" xmlns="http://www.w3.org/2000/svg" xmlns:xlink="http://www.w3.org/1999/xlink" width="512.000000pt" height="512.000000pt" viewBox="0,0,256,256"><g fill="#f2f2f2" fill-rule="nonzero" stroke="#f2f2f2" stroke-width="58" stroke-linecap="butt" stroke-linejoin="round" stroke-miterlimit="10" stroke-dasharray="" stroke-dashoffset="0" font-family="none" font-weight="none" font-size="none" text-anchor="none" style="mix-blend-mode: normal"><path transform="translate(0.04363,0.07498) scale(0.05,0.05)" d="M1514,4517c-572,-331 -1041,-606 -1041,-612c0,-5 470,-281 1044,-612l1044,-602l1050,606c578,333 1046,609 1042,613c-10,9 -2091,1210 -2095,1209c-2,0 -471,-271 -1044,-602zM310,1212l1028,-593c565,-326 1037,-599 1050,-607l22,-14l-2,1217l-3,1218l-1008,582c-554,320 -1025,592 -1047,604l-40,22zM2715,2433l-3,-1218l-2,-1217l32,20c18,11 488,282 1043,602c556,320 1013,585 1018,589c4,4 6,552 5,1218l-3,1212z" id="strokeMainSVG"></path></g><g fill="#000000" fill-rule="nonzero" stroke="none" stroke-width="1" stroke-linecap="butt" stroke-linejoin="miter" stroke-miterlimit="10" stroke-dasharray="" stroke-dashoffset="0" font-family="none" font-weight="none" font-size="none" text-anchor="none" style="mix-blend-mode: normal"><g transform="translate(0.04363,-0.07498) scale(0.5,0.5)"><g transform="translate(0,512) scale(0.1,-0.1)"><path d="M1514,4517c-572,-331 -1041,-606 -1041,-612c0,-5 470,-281 1044,-612l1044,-602l1050,606c578,333 1046,609 1042,613c-10,9 -2091,1210 -2095,1209c-2,0 -471,-271 -1044,-602z"></path><path d="M310,2427v-1215l1028,-593c565,-326 1037,-599 1050,-607l22,-14l-2,1217l-3,1218l-1008,582c-554,320 -1025,592 -1047,604l-40,22z"></path><path d="M3760,3036l-1045,-603l-3,-1218l-2,-1217l32,20c18,11 488,282 1043,602c556,320 1013,585 1018,589c4,4 6,552 5,1218l-3,1212z"></path></g></g></g><g fill="none" fill-rule="nonzero" stroke="none" stroke-width="none" stroke-linecap="butt" stroke-linejoin="none" stroke-miterlimit="10" stroke-dasharray="" stroke-dashoffset="0" font-family="none" font-weight="none" font-size="none" text-anchor="none" style="mix-blend-mode: normal"><path d="M59.305,136.46v12.29h-29.25v30.21h-15.24v-73.94h48.14v12.34h-32.9v19.1zM100.385,137.78c-2,-0.27333 -3.76,-0.41 -5.28,-0.41c-5.55333,0 -9.19333,1.88 -10.92,5.64v35.95h-14.68v-54.95h13.87l0.4,6.56c2.94667,-5.04667 7.02667,-7.57 12.24,-7.57c1.62667,0 3.15,0.22 4.57,0.66zM103.325,150.98c0,-5.45333 1.05,-10.31 3.15,-14.57c2.1,-4.26667 5.12333,-7.57 9.07,-9.91c3.94,-2.33333 8.51667,-3.5 13.73,-3.5c7.41333,0 13.46667,2.26667 18.16,6.8c4.68667,4.54 7.3,10.70333 7.84,18.49l0.1,3.76c0,8.42667 -2.35,15.18667 -7.05,20.28c-4.70667,5.1 -11.02333,7.65 -18.95,7.65c-7.92,0 -14.24,-2.54 -18.96,-7.62c-4.72667,-5.08 -7.09,-11.98667 -7.09,-20.72zM118.005,152.05c0,5.21333 0.98,9.19667 2.94,11.95c1.96667,2.76 4.77667,4.14 8.43,4.14c3.56,0 6.33667,-1.36 8.33,-4.08c2,-2.72667 3,-7.08667 3,-13.08c0,-5.11333 -1,-9.07333 -3,-11.88c-1.99333,-2.81333 -4.80333,-4.22 -8.43,-4.22c-3.58667,0 -6.36333,1.39667 -8.33,4.19c-1.96,2.79333 -2.94,7.12 -2.94,12.98zM164.115,124.01h13.81l0.46,6.35c3.92667,-4.90667 9.19,-7.36 15.79,-7.36c5.82667,0 10.16,1.71 13,5.13c2.84667,3.42 4.30333,8.53 4.37,15.33v35.5h-14.68v-35.14c0,-3.11333 -0.67667,-5.37333 -2.03,-6.78c-1.35333,-1.40667 -3.60333,-2.11 -6.75,-2.11c-4.13333,0 -7.23333,1.76 -9.3,5.28v38.75h-14.67zM225.555,110.51h14.68v13.5h9.39v10.77h-9.39v27.42c0,2.03333 0.39,3.49 1.17,4.37c0.78,0.88 2.27,1.32 4.47,1.32c1.62,0 3.05667,-0.12 4.31,-0.36v11.13c-2.87333,0.88 -5.83333,1.32 -8.88,1.32c-10.29333,0 -15.54333,-5.19667 -15.75,-15.59v-29.61h-8.02v-10.77h8.02z" id="strokeMainSVG" fill="#f2f2f2" stroke="#f2f2f2" stroke-width="29" stroke-linejoin="round"></path><g fill="#f60d0d" stroke="none" stroke-width="1" stroke-linejoin="miter"><path d="M59.305,136.46v12.29h-29.25v30.21h-15.24v-73.94h48.14v12.34h-32.9v19.1zM100.585,123.66l-0.2,14.12c-2,-0.27333 -3.76,-0.41 -5.28,-0.41v0c-5.55333,0 -9.19333,1.88 -10.92,5.64v0v35.95h-14.68v-54.95h13.87l0.4,6.56c2.94667,-5.04667 7.02667,-7.57 12.24,-7.57v0c1.62667,0 3.15,0.22 4.57,0.66zM103.325,151.64v-0.66c0,-5.45333 1.05,-10.31 3.15,-14.57c2.1,-4.26667 5.12333,-7.57 9.07,-9.91c3.94,-2.33333 8.51667,-3.5 13.73,-3.5v0c7.41333,0 13.46667,2.26667 18.16,6.8c4.68667,4.54 7.3,10.70333 7.84,18.49v0l0.1,3.76c0,8.42667 -2.35,15.18667 -7.05,20.28c-4.70667,5.1 -11.02333,7.65 -18.95,7.65c-7.92,0 -14.24,-2.54 -18.96,-7.62c-4.72667,-5.08 -7.09,-11.98667 -7.09,-20.72zM118.005,152.05v0c0,5.21333 0.98,9.19667 2.94,11.95c1.96667,2.76 4.77667,4.14 8.43,4.14v0c3.56,0 6.33667,-1.36 8.33,-4.08c2,-2.72667 3,-7.08667 3,-13.08v0c0,-5.11333 -1,-9.07333 -3,-11.88c-1.99333,-2.81333 -4.80333,-4.22 -8.43,-4.22v0c-3.58667,0 -6.36333,1.39667 -8.33,4.19c-1.96,2.79333 -2.94,7.12 -2.94,12.98zM164.115,124.01h13.81l0.46,6.35c3.92667,-4.90667 9.19,-7.36 15.79,-7.36v0c5.82667,0 10.16,1.71 13,5.13c2.84667,3.42 4.30333,8.53 4.37,15.33v0v35.5h-14.68v-35.14c0,-3.11333 -0.67667,-5.37333 -2.03,-6.78c-1.35333,-1.40667 -3.60333,-2.11 -6.75,-2.11v0c-4.13333,0 -7.23333,1.76 -9.3,5.28v0v38.75h-14.67zM225.555,110.51h14.68v13.5h9.39v10.77h-9.39v27.42c0,2.03333 0.39,3.49 1.17,4.37c0.78,0.88 2.27,1.32 4.47,1.32v0c1.62,0 3.05667,-0.12 4.31,-0.36v0v11.13c-2.87333,0.88 -5.83333,1.32 -8.88,1.32v0c-10.29333,0 -15.54333,-5.19667 -15.75,-15.59v0v-29.61h-8.02v-10.77h8.02z"></path></g></g></svg>